<mxfile host="app.diagrams.net" modified="2024-02-25T10:16:23.180Z" agent="Mozilla/5.0 (Macintosh; Intel Mac OS X 10_15_7) AppleWebKit/537.36 (KHTML, like Gecko) Chrome/121.0.0.0 Safari/537.36" etag="x0xbYoscytU4ekegoqPa" version="23.1.6" type="github">
  <diagram name="第 1 页" id="k8oAtgESyHvcTxMSQwm_">
    <mxGraphModel dx="1978" dy="1478" grid="0" gridSize="10" guides="1" tooltips="1" connect="1" arrows="1" fold="1" page="0" pageScale="1" pageWidth="827" pageHeight="1169" math="0" shadow="0">
      <root>
        <mxCell id="0" />
        <mxCell id="1" parent="0" />
        <mxCell id="aqOKcFRG-qI8xayxPtAy-166" style="edgeStyle=none;curved=1;rounded=0;orthogonalLoop=1;jettySize=auto;html=1;exitX=1;exitY=0.5;exitDx=0;exitDy=0;fontSize=12;startSize=8;endSize=8;" edge="1" parent="1" source="aqOKcFRG-qI8xayxPtAy-141" target="aqOKcFRG-qI8xayxPtAy-162">
          <mxGeometry relative="1" as="geometry" />
        </mxCell>
        <mxCell id="aqOKcFRG-qI8xayxPtAy-141" value="" style="rounded=0;whiteSpace=wrap;html=1;" vertex="1" parent="1">
          <mxGeometry x="-747" y="45" width="230" height="209" as="geometry" />
        </mxCell>
        <mxCell id="aqOKcFRG-qI8xayxPtAy-120" style="edgeStyle=none;curved=1;rounded=0;orthogonalLoop=1;jettySize=auto;html=1;exitX=0.25;exitY=1;exitDx=0;exitDy=0;entryX=0.25;entryY=0;entryDx=0;entryDy=0;fontSize=12;startSize=8;endSize=8;" edge="1" parent="1">
          <mxGeometry relative="1" as="geometry">
            <mxPoint x="-648" y="-107" as="sourcePoint" />
            <mxPoint x="-648" y="-50" as="targetPoint" />
          </mxGeometry>
        </mxCell>
        <mxCell id="aqOKcFRG-qI8xayxPtAy-158" style="edgeStyle=none;curved=1;rounded=0;orthogonalLoop=1;jettySize=auto;html=1;exitX=0;exitY=0.5;exitDx=0;exitDy=0;entryX=1;entryY=0.5;entryDx=0;entryDy=0;fontSize=12;startSize=8;endSize=8;" edge="1" parent="1" source="aqOKcFRG-qI8xayxPtAy-112" target="aqOKcFRG-qI8xayxPtAy-157">
          <mxGeometry relative="1" as="geometry" />
        </mxCell>
        <mxCell id="aqOKcFRG-qI8xayxPtAy-112" value="浏览器" style="rounded=1;whiteSpace=wrap;html=1;" vertex="1" parent="1">
          <mxGeometry x="-703" y="-167" width="120" height="60" as="geometry" />
        </mxCell>
        <mxCell id="aqOKcFRG-qI8xayxPtAy-114" value="DNS" style="ellipse;whiteSpace=wrap;html=1;aspect=fixed;" vertex="1" parent="1">
          <mxGeometry x="-468" y="-174" width="80" height="80" as="geometry" />
        </mxCell>
        <mxCell id="aqOKcFRG-qI8xayxPtAy-116" value="" style="endArrow=classic;html=1;rounded=0;fontSize=12;startSize=8;endSize=8;entryX=0.025;entryY=0.356;entryDx=0;entryDy=0;entryPerimeter=0;" edge="1" parent="1" target="aqOKcFRG-qI8xayxPtAy-114">
          <mxGeometry width="50" height="50" relative="1" as="geometry">
            <mxPoint x="-584" y="-147" as="sourcePoint" />
            <mxPoint x="-534" y="-197" as="targetPoint" />
          </mxGeometry>
        </mxCell>
        <mxCell id="aqOKcFRG-qI8xayxPtAy-117" value="域名" style="text;html=1;align=center;verticalAlign=middle;whiteSpace=wrap;rounded=0;fontSize=16;" vertex="1" parent="1">
          <mxGeometry x="-555" y="-176" width="60" height="30" as="geometry" />
        </mxCell>
        <mxCell id="aqOKcFRG-qI8xayxPtAy-118" value="" style="endArrow=classic;html=1;rounded=0;fontSize=12;startSize=8;endSize=8;entryX=1;entryY=0.75;entryDx=0;entryDy=0;" edge="1" parent="1" target="aqOKcFRG-qI8xayxPtAy-112">
          <mxGeometry width="50" height="50" relative="1" as="geometry">
            <mxPoint x="-470" y="-120" as="sourcePoint" />
            <mxPoint x="-420" y="-170" as="targetPoint" />
          </mxGeometry>
        </mxCell>
        <mxCell id="aqOKcFRG-qI8xayxPtAy-119" value="IP" style="text;html=1;align=center;verticalAlign=middle;whiteSpace=wrap;rounded=0;fontSize=16;" vertex="1" parent="1">
          <mxGeometry x="-551" y="-116" width="60" height="30" as="geometry" />
        </mxCell>
        <mxCell id="aqOKcFRG-qI8xayxPtAy-121" value="公共IP" style="text;html=1;align=center;verticalAlign=middle;whiteSpace=wrap;rounded=0;fontSize=16;" vertex="1" parent="1">
          <mxGeometry x="-708" y="-94" width="60" height="30" as="geometry" />
        </mxCell>
        <mxCell id="aqOKcFRG-qI8xayxPtAy-128" value="Web1" style="rounded=1;whiteSpace=wrap;html=1;direction=south;" vertex="1" parent="1">
          <mxGeometry x="-741" y="72" width="60" height="120" as="geometry" />
        </mxCell>
        <mxCell id="aqOKcFRG-qI8xayxPtAy-131" style="edgeStyle=none;curved=1;rounded=0;orthogonalLoop=1;jettySize=auto;html=1;exitX=0.25;exitY=1;exitDx=0;exitDy=0;entryX=0;entryY=0.25;entryDx=0;entryDy=0;fontSize=12;startSize=8;endSize=8;" edge="1" parent="1" source="aqOKcFRG-qI8xayxPtAy-129" target="aqOKcFRG-qI8xayxPtAy-128">
          <mxGeometry relative="1" as="geometry" />
        </mxCell>
        <mxCell id="aqOKcFRG-qI8xayxPtAy-132" style="edgeStyle=none;curved=1;rounded=0;orthogonalLoop=1;jettySize=auto;html=1;exitX=0.75;exitY=1;exitDx=0;exitDy=0;entryX=0;entryY=0.5;entryDx=0;entryDy=0;fontSize=12;startSize=8;endSize=8;" edge="1" parent="1" source="aqOKcFRG-qI8xayxPtAy-129" target="aqOKcFRG-qI8xayxPtAy-130">
          <mxGeometry relative="1" as="geometry" />
        </mxCell>
        <mxCell id="aqOKcFRG-qI8xayxPtAy-129" value="负载均衡器" style="rounded=1;whiteSpace=wrap;html=1;" vertex="1" parent="1">
          <mxGeometry x="-703" y="-48" width="120" height="60" as="geometry" />
        </mxCell>
        <mxCell id="aqOKcFRG-qI8xayxPtAy-130" value="Web2" style="rounded=1;whiteSpace=wrap;html=1;direction=south;" vertex="1" parent="1">
          <mxGeometry x="-589" y="72" width="60" height="120" as="geometry" />
        </mxCell>
        <mxCell id="aqOKcFRG-qI8xayxPtAy-133" value="私有IP" style="text;html=1;align=center;verticalAlign=middle;whiteSpace=wrap;rounded=0;fontSize=16;" vertex="1" parent="1">
          <mxGeometry x="-747" y="22" width="60" height="30" as="geometry" />
        </mxCell>
        <mxCell id="aqOKcFRG-qI8xayxPtAy-134" value="私有IP" style="text;html=1;align=center;verticalAlign=middle;whiteSpace=wrap;rounded=0;fontSize=16;" vertex="1" parent="1">
          <mxGeometry x="-573" y="15" width="60" height="30" as="geometry" />
        </mxCell>
        <mxCell id="aqOKcFRG-qI8xayxPtAy-135" value="主库" style="shape=cylinder3;whiteSpace=wrap;html=1;boundedLbl=1;backgroundOutline=1;size=15;" vertex="1" parent="1">
          <mxGeometry x="-741" y="345" width="60" height="80" as="geometry" />
        </mxCell>
        <mxCell id="aqOKcFRG-qI8xayxPtAy-136" value="从库" style="shape=cylinder3;whiteSpace=wrap;html=1;boundedLbl=1;backgroundOutline=1;size=15;" vertex="1" parent="1">
          <mxGeometry x="-589" y="360" width="60" height="80" as="geometry" />
        </mxCell>
        <mxCell id="aqOKcFRG-qI8xayxPtAy-137" value="从库" style="shape=cylinder3;whiteSpace=wrap;html=1;boundedLbl=1;backgroundOutline=1;size=15;" vertex="1" parent="1">
          <mxGeometry x="-589" y="447" width="60" height="80" as="geometry" />
        </mxCell>
        <mxCell id="aqOKcFRG-qI8xayxPtAy-138" value="从库" style="shape=cylinder3;whiteSpace=wrap;html=1;boundedLbl=1;backgroundOutline=1;size=15;" vertex="1" parent="1">
          <mxGeometry x="-589" y="534" width="60" height="80" as="geometry" />
        </mxCell>
        <mxCell id="aqOKcFRG-qI8xayxPtAy-142" value="" style="endArrow=classic;html=1;rounded=0;fontSize=12;startSize=8;endSize=8;" edge="1" parent="1" target="aqOKcFRG-qI8xayxPtAy-135">
          <mxGeometry width="50" height="50" relative="1" as="geometry">
            <mxPoint x="-709" y="255" as="sourcePoint" />
            <mxPoint x="-659" y="205" as="targetPoint" />
          </mxGeometry>
        </mxCell>
        <mxCell id="aqOKcFRG-qI8xayxPtAy-145" value="写" style="text;html=1;align=center;verticalAlign=middle;whiteSpace=wrap;rounded=0;fontSize=16;" vertex="1" parent="1">
          <mxGeometry x="-703" y="297" width="60" height="30" as="geometry" />
        </mxCell>
        <mxCell id="aqOKcFRG-qI8xayxPtAy-146" value="" style="endArrow=classic;html=1;rounded=0;fontSize=12;startSize=8;endSize=8;entryX=0.5;entryY=0;entryDx=0;entryDy=0;entryPerimeter=0;" edge="1" parent="1" target="aqOKcFRG-qI8xayxPtAy-136">
          <mxGeometry width="50" height="50" relative="1" as="geometry">
            <mxPoint x="-558" y="252" as="sourcePoint" />
            <mxPoint x="-508" y="202" as="targetPoint" />
          </mxGeometry>
        </mxCell>
        <mxCell id="aqOKcFRG-qI8xayxPtAy-147" value="读" style="text;html=1;align=center;verticalAlign=middle;whiteSpace=wrap;rounded=0;fontSize=16;" vertex="1" parent="1">
          <mxGeometry x="-548" y="297" width="60" height="30" as="geometry" />
        </mxCell>
        <mxCell id="aqOKcFRG-qI8xayxPtAy-148" style="edgeStyle=none;curved=1;rounded=0;orthogonalLoop=1;jettySize=auto;html=1;exitX=1;exitY=0.5;exitDx=0;exitDy=0;exitPerimeter=0;entryX=0;entryY=0.5;entryDx=0;entryDy=0;entryPerimeter=0;fontSize=12;startSize=8;endSize=8;" edge="1" parent="1" source="aqOKcFRG-qI8xayxPtAy-135" target="aqOKcFRG-qI8xayxPtAy-136">
          <mxGeometry relative="1" as="geometry" />
        </mxCell>
        <mxCell id="aqOKcFRG-qI8xayxPtAy-149" style="edgeStyle=none;curved=1;rounded=0;orthogonalLoop=1;jettySize=auto;html=1;exitX=1;exitY=0.5;exitDx=0;exitDy=0;exitPerimeter=0;entryX=0;entryY=0;entryDx=0;entryDy=52.5;entryPerimeter=0;fontSize=12;startSize=8;endSize=8;" edge="1" parent="1" source="aqOKcFRG-qI8xayxPtAy-135" target="aqOKcFRG-qI8xayxPtAy-137">
          <mxGeometry relative="1" as="geometry" />
        </mxCell>
        <mxCell id="aqOKcFRG-qI8xayxPtAy-150" style="edgeStyle=none;curved=1;rounded=0;orthogonalLoop=1;jettySize=auto;html=1;exitX=1;exitY=0.5;exitDx=0;exitDy=0;exitPerimeter=0;entryX=0;entryY=0.5;entryDx=0;entryDy=0;entryPerimeter=0;fontSize=12;startSize=8;endSize=8;" edge="1" parent="1" source="aqOKcFRG-qI8xayxPtAy-135" target="aqOKcFRG-qI8xayxPtAy-138">
          <mxGeometry relative="1" as="geometry" />
        </mxCell>
        <mxCell id="aqOKcFRG-qI8xayxPtAy-151" value="同步" style="text;html=1;align=center;verticalAlign=middle;whiteSpace=wrap;rounded=0;fontSize=16;" vertex="1" parent="1">
          <mxGeometry x="-681" y="467" width="60" height="30" as="geometry" />
        </mxCell>
        <mxCell id="aqOKcFRG-qI8xayxPtAy-153" value="缓存" style="shape=cylinder3;whiteSpace=wrap;html=1;boundedLbl=1;backgroundOutline=1;size=15;" vertex="1" parent="1">
          <mxGeometry x="-413" y="235" width="60" height="80" as="geometry" />
        </mxCell>
        <mxCell id="aqOKcFRG-qI8xayxPtAy-154" value="" style="endArrow=classic;html=1;rounded=0;fontSize=12;startSize=8;endSize=8;entryX=0;entryY=0;entryDx=0;entryDy=52.5;entryPerimeter=0;" edge="1" parent="1" target="aqOKcFRG-qI8xayxPtAy-153">
          <mxGeometry width="50" height="50" relative="1" as="geometry">
            <mxPoint x="-517" y="199" as="sourcePoint" />
            <mxPoint x="-467" y="149" as="targetPoint" />
          </mxGeometry>
        </mxCell>
        <mxCell id="aqOKcFRG-qI8xayxPtAy-155" value="" style="endArrow=classic;html=1;rounded=0;fontSize=12;startSize=8;endSize=8;" edge="1" parent="1">
          <mxGeometry width="50" height="50" relative="1" as="geometry">
            <mxPoint x="-388" y="315" as="sourcePoint" />
            <mxPoint x="-503" y="475" as="targetPoint" />
          </mxGeometry>
        </mxCell>
        <mxCell id="aqOKcFRG-qI8xayxPtAy-156" value="一致性问题" style="text;html=1;align=center;verticalAlign=middle;whiteSpace=wrap;rounded=0;fontSize=16;" vertex="1" parent="1">
          <mxGeometry x="-481" y="368" width="90" height="34" as="geometry" />
        </mxCell>
        <mxCell id="aqOKcFRG-qI8xayxPtAy-157" value="CDN" style="ellipse;whiteSpace=wrap;html=1;aspect=fixed;" vertex="1" parent="1">
          <mxGeometry x="-870" y="-177" width="80" height="80" as="geometry" />
        </mxCell>
        <mxCell id="aqOKcFRG-qI8xayxPtAy-159" value="一些静态数据" style="text;html=1;align=center;verticalAlign=middle;whiteSpace=wrap;rounded=0;fontSize=16;" vertex="1" parent="1">
          <mxGeometry x="-884" y="-93" width="108" height="29" as="geometry" />
        </mxCell>
        <mxCell id="aqOKcFRG-qI8xayxPtAy-160" value="共享Session" style="shape=cylinder3;whiteSpace=wrap;html=1;boundedLbl=1;backgroundOutline=1;size=15;" vertex="1" parent="1">
          <mxGeometry x="-867" y="235" width="60" height="80" as="geometry" />
        </mxCell>
        <mxCell id="aqOKcFRG-qI8xayxPtAy-161" value="" style="endArrow=classic;html=1;rounded=0;fontSize=12;startSize=8;endSize=8;entryX=0.712;entryY=-0.005;entryDx=0;entryDy=0;entryPerimeter=0;" edge="1" parent="1" target="aqOKcFRG-qI8xayxPtAy-160">
          <mxGeometry width="50" height="50" relative="1" as="geometry">
            <mxPoint x="-747" y="168" as="sourcePoint" />
            <mxPoint x="-697" y="118" as="targetPoint" />
          </mxGeometry>
        </mxCell>
        <mxCell id="aqOKcFRG-qI8xayxPtAy-165" value="" style="group" vertex="1" connectable="0" parent="1">
          <mxGeometry x="-429" y="127.5" width="270" height="44" as="geometry" />
        </mxCell>
        <mxCell id="aqOKcFRG-qI8xayxPtAy-162" value="消息队列" style="rounded=1;whiteSpace=wrap;html=1;" vertex="1" parent="aqOKcFRG-qI8xayxPtAy-165">
          <mxGeometry width="90" height="44" as="geometry" />
        </mxCell>
        <mxCell id="aqOKcFRG-qI8xayxPtAy-167" style="edgeStyle=none;curved=1;rounded=0;orthogonalLoop=1;jettySize=auto;html=1;exitX=1;exitY=0.5;exitDx=0;exitDy=0;fontSize=12;startSize=8;endSize=8;" edge="1" parent="aqOKcFRG-qI8xayxPtAy-165" source="aqOKcFRG-qI8xayxPtAy-163" target="aqOKcFRG-qI8xayxPtAy-164">
          <mxGeometry relative="1" as="geometry" />
        </mxCell>
        <mxCell id="aqOKcFRG-qI8xayxPtAy-163" value="" style="rounded=1;whiteSpace=wrap;html=1;" vertex="1" parent="aqOKcFRG-qI8xayxPtAy-165">
          <mxGeometry x="90" width="90" height="44" as="geometry" />
        </mxCell>
        <mxCell id="aqOKcFRG-qI8xayxPtAy-164" value="" style="rounded=1;whiteSpace=wrap;html=1;" vertex="1" parent="aqOKcFRG-qI8xayxPtAy-165">
          <mxGeometry x="180" width="90" height="44" as="geometry" />
        </mxCell>
        <mxCell id="aqOKcFRG-qI8xayxPtAy-168" value="处理服务" style="ellipse;whiteSpace=wrap;html=1;" vertex="1" parent="1">
          <mxGeometry x="-94" y="109" width="120" height="80" as="geometry" />
        </mxCell>
        <mxCell id="aqOKcFRG-qI8xayxPtAy-169" style="edgeStyle=none;curved=1;rounded=0;orthogonalLoop=1;jettySize=auto;html=1;exitX=1;exitY=0.5;exitDx=0;exitDy=0;entryX=0;entryY=0.5;entryDx=0;entryDy=0;fontSize=12;startSize=8;endSize=8;" edge="1" parent="1" source="aqOKcFRG-qI8xayxPtAy-164" target="aqOKcFRG-qI8xayxPtAy-168">
          <mxGeometry relative="1" as="geometry" />
        </mxCell>
        <mxCell id="aqOKcFRG-qI8xayxPtAy-173" style="edgeStyle=none;curved=1;rounded=0;orthogonalLoop=1;jettySize=auto;html=1;exitX=1;exitY=0.25;exitDx=0;exitDy=0;entryX=0;entryY=0.25;entryDx=0;entryDy=0;fontSize=12;startSize=8;endSize=8;" edge="1" parent="1" source="aqOKcFRG-qI8xayxPtAy-170" target="aqOKcFRG-qI8xayxPtAy-171">
          <mxGeometry relative="1" as="geometry" />
        </mxCell>
        <mxCell id="aqOKcFRG-qI8xayxPtAy-174" style="edgeStyle=none;curved=1;rounded=0;orthogonalLoop=1;jettySize=auto;html=1;exitX=1;exitY=0.5;exitDx=0;exitDy=0;entryX=0;entryY=0.5;entryDx=0;entryDy=0;fontSize=12;startSize=8;endSize=8;" edge="1" parent="1" source="aqOKcFRG-qI8xayxPtAy-170" target="aqOKcFRG-qI8xayxPtAy-171">
          <mxGeometry relative="1" as="geometry" />
        </mxCell>
        <mxCell id="aqOKcFRG-qI8xayxPtAy-175" style="edgeStyle=none;curved=1;rounded=0;orthogonalLoop=1;jettySize=auto;html=1;exitX=1;exitY=0.75;exitDx=0;exitDy=0;entryX=0;entryY=0.75;entryDx=0;entryDy=0;fontSize=12;startSize=8;endSize=8;" edge="1" parent="1" source="aqOKcFRG-qI8xayxPtAy-170" target="aqOKcFRG-qI8xayxPtAy-171">
          <mxGeometry relative="1" as="geometry" />
        </mxCell>
        <mxCell id="aqOKcFRG-qI8xayxPtAy-170" value="客户端" style="rounded=1;whiteSpace=wrap;html=1;" vertex="1" parent="1">
          <mxGeometry x="-1132" y="836" width="120" height="60" as="geometry" />
        </mxCell>
        <mxCell id="aqOKcFRG-qI8xayxPtAy-177" style="edgeStyle=none;curved=1;rounded=0;orthogonalLoop=1;jettySize=auto;html=1;exitX=1;exitY=0.25;exitDx=0;exitDy=0;fontSize=12;startSize=8;endSize=8;" edge="1" parent="1" source="aqOKcFRG-qI8xayxPtAy-171">
          <mxGeometry relative="1" as="geometry">
            <mxPoint x="-717.8947368421052" y="851.421052631579" as="targetPoint" />
          </mxGeometry>
        </mxCell>
        <mxCell id="aqOKcFRG-qI8xayxPtAy-178" style="edgeStyle=none;curved=1;rounded=0;orthogonalLoop=1;jettySize=auto;html=1;exitX=1;exitY=0.5;exitDx=0;exitDy=0;fontSize=12;startSize=8;endSize=8;" edge="1" parent="1" source="aqOKcFRG-qI8xayxPtAy-171">
          <mxGeometry relative="1" as="geometry">
            <mxPoint x="-717.8947368421052" y="866.1578947368421" as="targetPoint" />
          </mxGeometry>
        </mxCell>
        <mxCell id="aqOKcFRG-qI8xayxPtAy-171" value="限流器" style="shape=process;whiteSpace=wrap;html=1;backgroundOutline=1;" vertex="1" parent="1">
          <mxGeometry x="-919" y="836" width="120" height="60" as="geometry" />
        </mxCell>
        <mxCell id="aqOKcFRG-qI8xayxPtAy-172" value="服务器" style="rounded=1;whiteSpace=wrap;html=1;" vertex="1" parent="1">
          <mxGeometry x="-709" y="836" width="120" height="60" as="geometry" />
        </mxCell>
        <mxCell id="aqOKcFRG-qI8xayxPtAy-179" value="" style="verticalLabelPosition=bottom;verticalAlign=top;html=1;shape=mxgraph.basic.x" vertex="1" parent="1">
          <mxGeometry x="-984" y="875" width="24" height="24" as="geometry" />
        </mxCell>
        <mxCell id="aqOKcFRG-qI8xayxPtAy-183" style="edgeStyle=none;curved=1;rounded=0;orthogonalLoop=1;jettySize=auto;html=1;exitX=0;exitY=0.5;exitDx=0;exitDy=0;exitPerimeter=0;fontSize=12;startSize=8;endSize=8;" edge="1" parent="1" source="aqOKcFRG-qI8xayxPtAy-181" target="aqOKcFRG-qI8xayxPtAy-171">
          <mxGeometry relative="1" as="geometry" />
        </mxCell>
        <mxCell id="aqOKcFRG-qI8xayxPtAy-181" value="Redis" style="shape=cylinder3;whiteSpace=wrap;html=1;boundedLbl=1;backgroundOutline=1;size=15;" vertex="1" parent="1">
          <mxGeometry x="-758" y="922" width="60" height="80" as="geometry" />
        </mxCell>
        <mxCell id="aqOKcFRG-qI8xayxPtAy-182" value="存储请求个数" style="text;html=1;align=center;verticalAlign=middle;whiteSpace=wrap;rounded=0;fontSize=16;" vertex="1" parent="1">
          <mxGeometry x="-778" y="1006" width="100" height="30" as="geometry" />
        </mxCell>
        <mxCell id="aqOKcFRG-qI8xayxPtAy-189" style="edgeStyle=none;curved=1;rounded=0;orthogonalLoop=1;jettySize=auto;html=1;exitX=0;exitY=0.5;exitDx=0;exitDy=0;fontSize=12;startSize=8;endSize=8;" edge="1" parent="1" source="aqOKcFRG-qI8xayxPtAy-184" target="aqOKcFRG-qI8xayxPtAy-171">
          <mxGeometry relative="1" as="geometry" />
        </mxCell>
        <mxCell id="aqOKcFRG-qI8xayxPtAy-184" value="缓存规则" style="ellipse;whiteSpace=wrap;html=1;" vertex="1" parent="1">
          <mxGeometry x="-799" y="667" width="120" height="80" as="geometry" />
        </mxCell>
        <mxCell id="aqOKcFRG-qI8xayxPtAy-187" style="edgeStyle=none;curved=1;rounded=0;orthogonalLoop=1;jettySize=auto;html=1;exitX=1;exitY=0.5;exitDx=0;exitDy=0;entryX=0;entryY=0.5;entryDx=0;entryDy=0;fontSize=12;startSize=8;endSize=8;" edge="1" parent="1" source="aqOKcFRG-qI8xayxPtAy-185" target="aqOKcFRG-qI8xayxPtAy-186">
          <mxGeometry relative="1" as="geometry" />
        </mxCell>
        <mxCell id="aqOKcFRG-qI8xayxPtAy-188" style="edgeStyle=none;curved=1;rounded=0;orthogonalLoop=1;jettySize=auto;html=1;exitX=0;exitY=0.5;exitDx=0;exitDy=0;entryX=1;entryY=0.5;entryDx=0;entryDy=0;fontSize=12;startSize=8;endSize=8;" edge="1" parent="1" source="aqOKcFRG-qI8xayxPtAy-185" target="aqOKcFRG-qI8xayxPtAy-184">
          <mxGeometry relative="1" as="geometry" />
        </mxCell>
        <mxCell id="aqOKcFRG-qI8xayxPtAy-185" value="规则读取服务器" style="rounded=1;whiteSpace=wrap;html=1;" vertex="1" parent="1">
          <mxGeometry x="-621" y="677" width="120" height="60" as="geometry" />
        </mxCell>
        <mxCell id="aqOKcFRG-qI8xayxPtAy-186" value="规则文件" style="rounded=1;whiteSpace=wrap;html=1;" vertex="1" parent="1">
          <mxGeometry x="-429" y="677" width="120" height="60" as="geometry" />
        </mxCell>
        <mxCell id="aqOKcFRG-qI8xayxPtAy-194" value="" style="endArrow=classic;html=1;rounded=0;fontSize=12;startSize=8;endSize=8;" edge="1" parent="1">
          <mxGeometry width="50" height="50" relative="1" as="geometry">
            <mxPoint x="-908.5" y="917" as="sourcePoint" />
            <mxPoint x="-1035.5" y="917" as="targetPoint" />
          </mxGeometry>
        </mxCell>
        <mxCell id="aqOKcFRG-qI8xayxPtAy-195" value="返回客户端" style="text;html=1;align=center;verticalAlign=middle;whiteSpace=wrap;rounded=0;fontSize=16;" vertex="1" parent="1">
          <mxGeometry x="-1018.5" y="925" width="93" height="30" as="geometry" />
        </mxCell>
        <mxCell id="aqOKcFRG-qI8xayxPtAy-196" value="" style="endArrow=classic;html=1;rounded=0;fontSize=12;startSize=8;endSize=8;" edge="1" parent="1">
          <mxGeometry width="50" height="50" relative="1" as="geometry">
            <mxPoint x="-865" y="895" as="sourcePoint" />
            <mxPoint x="-861" y="1087" as="targetPoint" />
          </mxGeometry>
        </mxCell>
        <mxCell id="aqOKcFRG-qI8xayxPtAy-197" value="消息队列" style="rounded=1;whiteSpace=wrap;html=1;" vertex="1" parent="1">
          <mxGeometry x="-914" y="1090" width="120" height="60" as="geometry" />
        </mxCell>
        <mxCell id="aqOKcFRG-qI8xayxPtAy-198" value="加入" style="text;html=1;align=center;verticalAlign=middle;whiteSpace=wrap;rounded=0;fontSize=16;" vertex="1" parent="1">
          <mxGeometry x="-919" y="993" width="60" height="30" as="geometry" />
        </mxCell>
      </root>
    </mxGraphModel>
  </diagram>
</mxfile>
